<svg width="1043" height="1043" viewBox="0 0 1043 1043" fill="none" xmlns="http://www.w3.org/2000/svg">
<g clip-path="url(#clip0_274_2)">
<circle cx="521.5" cy="521.5" r="521.5" fill="#373A40"/>
<path d="M118.2 714.4C118.4 700 118.8 683 119.4 663.4C120.2 643.6 121.1 622.7 122.1 600.7C123.1 578.5 124.2 556.6 125.4 535C125.4 531.6 125.5 528.4 125.7 525.4C126.1 522.2 126.3 519 126.3 515.8C126.7 512.4 126.9 509.2 126.9 506.2C126.9 503 127 499.8 127.2 496.6C127.6 490.6 127.9 484.9 128.1 479.5C128.5 473.9 128.8 468.4 129 463C152.4 462.4 170.1 461.1 182.1 459.1C194.3 457.1 202.5 454.2 206.7 450.4C210.9 446.6 212.8 441.6 212.4 435.4C211.8 427.2 205.9 422.2 194.7 420.4C183.7 418.6 162.6 419.4 131.4 422.8C131.8 418.2 132.1 413.8 132.3 409.6C132.7 405.2 133 400.8 133.2 396.4C135.4 371.4 141.6 353.7 151.8 343.3C162.2 332.7 176.3 327.4 194.1 327.4C210.9 327.4 224.5 331.8 234.9 340.6C245.5 349.2 256.2 364 267 385C274.8 400 283.3 418.8 292.5 441.4C301.7 464 311.2 488.3 321 514.3C331 540.1 340.9 565.7 350.7 591.1C360.5 616.3 369.8 639 378.6 659.2C380.8 664.4 383.8 667.6 387.6 668.8C391.6 669.8 395.1 669 398.1 666.4C401.3 663.8 402.8 659.6 402.6 653.8C401.8 623.2 400.9 590.4 399.9 555.4C398.9 520.2 398 485.7 397.2 451.9C396.6 417.9 396 387.4 395.4 360.4C395 347.4 396.6 337.5 400.2 330.7C403.8 323.7 411 320.2 421.8 320.2C433 320.2 440.2 323.7 443.4 330.7C446.6 337.5 448.2 347 448.2 359.2C448.2 389 448.2 422.1 448.2 458.5C448.2 494.7 448 531.7 447.6 569.5C447.4 607.3 446.8 643.4 445.8 677.8C445.2 697.8 439.6 711.9 429 720.1C418.6 728.3 407.2 732.4 394.8 732.4C386.4 732.4 377.8 730.7 369 727.3C360.2 723.9 351.2 717.4 342 707.8C325 689.2 308.5 669.3 292.5 648.1C276.5 626.7 261 605.7 246 585.1C231.2 564.3 216.7 545.6 202.5 529C199.1 525 196.5 522.4 194.7 521.2C193.1 520 191.2 519.4 189 519.4C184 519.4 180.2 521.2 177.6 524.8C175.2 528.4 174 533.2 174 539.2C174 558.4 174.5 577.7 175.5 597.1C176.7 616.5 177.7 636 178.5 655.6C179.5 675.2 180 694.8 180 714.4C180 728.6 177.7 739.6 173.1 747.4C168.5 755 160.2 758.8 148.2 758.8C136 758.8 127.9 754.5 123.9 745.9C119.9 737.1 118 726.6 118.2 714.4ZM399.6 375.4C402.4 375.6 405 375.9 407.4 376.3C410 376.5 412.6 376.8 415.2 377.2C418.8 377.8 421.8 379 424.2 380.8C426.8 382.6 428.7 385 429.9 388C431.3 390.8 432 394 432 397.6C432 401 431.4 404.1 430.2 406.9C429 409.5 427 411.7 424.2 413.5C421.6 415.1 418 416 413.4 416.2C411 416.2 408.6 416.2 406.2 416.2C403.8 416.2 401.4 416.2 399 416.2C379.8 415.4 365.3 414.1 355.5 412.3C345.7 410.5 339.1 408 335.7 404.8C332.3 401.6 330.6 397.4 330.6 392.2C330.6 386.4 332.3 382 335.7 379C339.3 375.8 346 373.9 355.8 373.3C365.8 372.5 380.4 373.2 399.6 375.4ZM419.4 421C420.6 421 421.8 421 423 421C424.2 421 425.4 421 426.6 421C429.4 421 432.7 422.9 436.5 426.7C440.3 430.3 442.2 435.2 442.2 441.4C442.2 447.4 440.5 452.1 437.1 455.5C433.9 458.9 430.9 460.6 428.1 460.6C426.3 460.6 424.8 460.6 423.6 460.6C422.6 460.6 421.1 460.6 419.1 460.6C414.3 460.6 410.7 458.9 408.3 455.5C406.1 451.9 405 446.8 405 440.2C405 433.2 406.3 428.3 408.9 425.5C411.5 422.5 415 421 419.4 421ZM432.6 460C435.4 459.6 437.7 459.3 439.5 459.1C441.5 458.9 443.4 458.8 445.2 458.8C460.6 457.6 472 457.6 479.4 458.8C486.8 460 491.6 462.2 493.8 465.4C496 468.6 497.1 472.6 497.1 477.4C497.1 482.8 496 487.3 493.8 490.9C491.8 494.5 487.1 497.1 479.7 498.7C472.5 500.3 461.4 500.8 446.4 500.2C444 500.2 441.4 500.2 438.6 500.2C436 500 433.6 499.6 431.4 499C425.8 497.8 421.8 495.3 419.4 491.5C417 487.5 415.8 483 415.8 478C415.8 473 417.3 468.9 420.3 465.7C423.5 462.5 427.6 460.6 432.6 460ZM162.9 649C172.9 649 183.3 649.2 194.1 649.6C204.9 649.8 216 650.2 227.4 650.8C236.4 651.2 243.5 653.2 248.7 656.8C254.1 660.4 256.8 666 256.8 673.6C256.8 682.2 254 688.2 248.4 691.6C243 695 235 696.4 224.4 695.8C212.2 695.2 200.2 694.5 188.4 693.7C176.6 692.7 166.3 691.8 157.5 691C146.5 689.8 139.6 687.3 136.8 683.5C134 679.7 132.6 675 132.6 669.4C132.6 662.8 134.6 657.8 138.6 654.4C142.6 650.8 150.7 649 162.9 649ZM225.6 691C221.4 691 217.7 689.4 214.5 686.2C211.5 682.8 210 678.4 210 673C210 667.6 211.7 663.4 215.1 660.4C218.5 657.2 223.6 655.6 230.4 655.6C234 655.6 237.4 657.1 240.6 660.1C243.8 662.9 245.4 667 245.4 672.4C245.4 678 243.7 682.5 240.3 685.9C237.1 689.3 232.2 691 225.6 691ZM259.8 529.6C268.2 529.6 274.6 526.8 279 521.2C283.4 515.6 285.6 508.2 285.6 499C285.6 492.4 283 486.5 277.8 481.3C272.8 475.9 265.6 473.2 256.2 473.2C248.2 473.2 241.7 476 236.7 481.6C231.7 487 229.2 494.8 229.2 505C229.2 512.4 231.7 518.4 236.7 523C241.9 527.4 249.6 529.6 259.8 529.6ZM520.027 653.8C520.427 646 520.927 638.1 521.527 630.1C522.127 621.9 522.827 613.8 523.627 605.8C538.427 606.4 550.627 606.3 560.227 605.5C569.827 604.5 576.927 602.5 581.527 599.5C586.127 596.3 588.427 591.8 588.427 586C588.427 577.6 583.027 572.3 572.227 570.1C561.427 567.7 546.227 566.4 526.627 566.2C527.027 559 527.627 551.9 528.427 544.9C529.227 537.9 530.027 530.8 530.827 523.6C549.027 528 563.527 529.9 574.327 529.3C585.327 528.7 590.827 522.3 590.827 510.1C590.827 503.3 586.627 498.3 578.227 495.1C569.827 491.7 555.227 489 534.427 487C536.027 474.6 537.527 462.2 538.927 449.8C540.527 437.4 542.227 424.8 544.027 412C547.627 385.6 555.727 366.3 568.327 354.1C580.927 341.9 597.827 335.8 619.027 335.8C638.827 335.8 653.427 340.5 662.827 349.9C672.427 359.1 679.627 371.2 684.427 386.2C685.827 390.4 687.127 394.6 688.327 398.8C689.727 402.8 691.027 406.8 692.227 410.8C693.227 413.6 694.127 416.5 694.927 419.5C695.927 422.3 696.827 425.1 697.627 427.9C698.427 430.5 699.227 433.2 700.027 436C700.827 438.6 701.627 441.3 702.427 444.1C703.427 447.7 704.527 451.3 705.727 454.9C706.927 458.5 708.027 462.2 709.027 466C709.827 468.6 710.527 471.2 711.127 473.8C711.927 476.2 712.727 478.7 713.527 481.3C714.527 483.9 715.427 486.5 716.227 489.1C717.027 491.7 717.827 494.4 718.627 497.2C721.027 505.4 723.527 513.8 726.127 522.4C728.927 531 731.827 540 734.827 549.4C736.827 555.8 740.627 559 746.227 559C751.427 559 755.227 555.2 757.627 547.6C763.627 529 769.127 510.1 774.127 490.9C779.127 471.7 784.327 452.1 789.727 432.1C795.127 411.9 801.427 391.2 808.627 370C812.827 357.4 818.227 347.9 824.827 341.5C831.427 334.9 840.227 331.6 851.227 331.6C864.227 331.6 873.627 336.1 879.427 345.1C885.427 353.9 889.427 365.4 891.427 379.6C899.627 435 907.027 492.4 913.627 551.8C920.227 611 926.027 669.6 931.027 727.6C932.027 737.4 930.827 745.5 927.427 751.9C924.027 758.1 918.227 761.2 910.027 761.2C902.227 761.2 896.127 758.6 891.727 753.4C887.527 748.2 884.227 740.2 881.827 729.4C875.627 699.4 870.027 669.7 865.027 640.3C860.027 610.9 854.827 584.4 849.427 560.8C847.627 552.4 844.027 547.7 838.627 546.7C833.427 545.7 827.627 548.4 821.227 554.8C812.227 564 804.127 573.4 796.927 583C789.727 592.6 781.627 602.2 772.627 611.8C766.027 619 759.627 624 753.427 626.8C747.227 629.6 741.027 631 734.827 631C727.627 631 720.927 628.7 714.727 624.1C708.727 619.3 703.627 611.8 699.427 601.6C689.227 577.2 679.527 550.9 670.327 522.7C661.127 494.5 651.427 467.4 641.227 441.4C638.027 433.2 633.927 429.9 628.927 431.5C623.927 432.9 621.227 437.2 620.827 444.4C620.027 467.8 619.827 490 620.227 511C620.827 532 621.427 554.6 622.027 578.8C622.627 602.8 622.827 631 622.627 663.4C622.427 682.2 618.327 697.1 610.327 708.1C602.527 719.1 588.227 724.6 567.427 724.6C553.827 724.6 543.527 721.6 536.527 715.6C529.527 709.6 524.827 701.3 522.427 690.7C520.227 679.9 519.427 667.6 520.027 653.8ZM843.427 499.6C851.027 499.6 857.327 497.3 862.327 492.7C867.327 487.9 869.827 481.8 869.827 474.4C869.827 463.8 867.527 456.3 862.927 451.9C858.527 447.3 853.027 445 846.427 445C835.427 445 827.427 447.7 822.427 453.1C817.627 458.3 815.227 465.4 815.227 474.4C815.227 481.8 817.927 487.9 823.327 492.7C828.727 497.3 835.427 499.6 843.427 499.6ZM744.427 611.2C737.027 611.2 731.727 609.7 728.527 606.7C725.527 603.7 724.027 599.8 724.027 595C724.027 587.8 725.627 582.5 728.827 579.1C732.027 575.7 737.227 574 744.427 574C749.627 574 753.727 575.6 756.727 578.8C759.727 581.8 761.227 586.8 761.227 593.8C761.227 599.8 759.727 604.2 756.727 607C753.727 609.8 749.627 611.2 744.427 611.2ZM889.627 700C881.827 701.2 873.327 702.2 864.127 703C855.127 703.8 845.827 704.4 836.227 704.8C821.227 705.4 809.627 704.3 801.427 701.5C793.427 698.7 789.427 692.8 789.427 683.8C789.427 675.6 793.027 670 800.227 667C807.627 663.8 820.027 661.2 837.427 659.2C844.627 658.6 851.627 658.1 858.427 657.7C865.227 657.1 873.427 656.8 883.027 656.8C891.427 656.8 898.527 658.1 904.327 660.7C910.127 663.1 913.027 668.4 913.027 676.6C913.027 684.4 910.927 690 906.727 693.4C902.527 696.6 896.827 698.8 889.627 700Z" fill="white"/>
</g>
<defs>
<clipPath id="clip0_274_2">
<rect width="1043" height="1043" fill="white"/>
</clipPath>
</defs>
</svg>
